<svg width="20" height="20" viewBox="0 0 20 20" fill="none" xmlns="http://www.w3.org/2000/svg">
<path fill-rule="evenodd" clip-rule="evenodd" d="M15.1829 4.25005C15.0171 4.25005 14.9634 4.25002 14.8827 4.25L14.9681 4.25003H2.30019C2.1344 4.25003 2 4.39622 2 4.57656C2 4.7569 2.1344 4.90309 2.30019 4.90309H14.9681V6.86227H2.30019C2.1344 6.86227 2 7.00846 2 7.1888C2 7.36914 2.1344 7.51533 2.30019 7.51533H14.9681V9.47451H2.30019C2.1344 9.47451 2 9.6207 2 9.80104C2 9.98137 2.1344 10.1276 2.30019 10.1276H14.9681V12.0867H2.30019C2.1344 12.0867 2 12.2329 2 12.4133C2 12.5936 2.1344 12.7398 2.30019 12.7398H14.9681V15.0255H2.30019C2.1344 15.0255 2 15.1717 2 15.352C2 15.5324 2.1344 15.6786 2.30019 15.6786H14.9681C15.1098 15.6786 15.1025 15.6786 15.2683 15.6786C15.4341 15.6786 15.439 15.6786 15.5685 15.6786H16.8293C16.8293 15.6786 17.2865 15.6786 17.6098 15.6786C17.933 15.6786 17.6098 15.6786 18 15.6786V4.25003C17.6098 4.25003 17.933 4.25003 17.6098 4.25003C17.2865 4.25003 16.8293 4.25003 16.8293 4.25003H15.5685L15.4831 4.25C15.3537 4.25001 15.3487 4.25005 15.1829 4.25005ZM16.8293 4.90309H15.5685V6.86227H16.8293V4.90309ZM16.8293 7.51533H15.5685V9.47451H16.8293V7.51533ZM16.8293 10.1276H15.5685V12.0867H16.8293V10.1276ZM16.8293 12.7398H15.5685V15.0255H16.8293V12.7398Z" fill="#C1C5D1"/>
<path fill-rule="evenodd" clip-rule="evenodd" d="M14.5 10.75H10.75V14.5C10.75 14.9125 10.4125 15.25 10 15.25C9.5875 15.25 9.25 14.9125 9.25 14.5V10.75H5.5C5.0875 10.75 4.75 10.4125 4.75 10C4.75 9.5875 5.0875 9.25 5.5 9.25H9.25V5.5C9.25 5.0875 9.5875 4.75 10 4.75C10.4125 4.75 10.75 5.0875 10.75 5.5V9.25H14.5C14.9125 9.25 15.25 9.5875 15.25 10C15.25 10.4125 14.9125 10.75 14.5 10.75Z" fill="#2F3446"/>
</svg>
